# xmcd
#
# Track frame offsets:
#	183
#	9395
#	21155
#	31223
#	43525
#	53328
#	63803
#	74225
#	85515
#	97298
#	110220
#	120815
#	131580
#	143035
#	153965
#	165590
#	178798
#	190158
#	202360
#	213790
#	223563
#	235398
#	248045
#	259728
#
# Disc length: 3608 seconds
#
# Revision: 3
# Processed by: cddbd v1.4PL0 Copyright (c) Steve Scherf et al.
# Submitted via: MusicWizard 6.0.2
#
DISCID=500e1618
DTITLE=Various Artist - On The Highway
DYEAR=1900
DGENRE=Country
TTITLE0=Jim Reeves - I Won't Forget You
TTITLE1=Skeeter Davis - The End Of The World
TTITLE2=Don Williams - Take My Hand For A While
TTITLE3=Willie Nelson - I Can't Find The Time
TTITLE4=Dolly Parton - Release Me
TTITLE5=Johnny Cash - Cold Cold Heart
TTITLE6=Patsy Cline - I Love You Honey
TTITLE7=Willie Nelson - Suffering In Silence
TTITLE8=Billy Jo Spears - Ease The Want In Me
TTITLE9=Don Williams - Where Do I Go From Here
TTITLE10=Jim Reeves - You're The Only Good Thing That Ever Happened To Me
TTITLE11=Dolly Parton - Honky Tonk Angels
TTITLE12=Johnny Cash - Big River
TTITLE13=Tennessee Ernie Ford - Sixteen Tons
TTITLE14=Patsy Cline - I've Loved And Lost Again
TTITLE15=Willie Nelson - You'll Always Have Someone
TTITLE16=Don Williams - Follow Me Back To Louisville
TTITLE17=Anne Murray - All The Time
TTITLE18=Patsy Cline - The Heart You Break
TTITLE19=Johnny Cash - Rock Island Line
TTITLE20=Jim Reeves - Welcome To My World
TTITLE21=Willie Nelson - I Just Don't Understand
TTITLE22=Don Williams - On Her Way To Be A Woman
TTITLE23=Patsy Cline - Don't Ever Leave Me
EXTD=
EXTT0=
EXTT1=
EXTT2=
EXTT3=
EXTT4=
EXTT5=
EXTT6=
EXTT7=
EXTT8=
EXTT9=
EXTT10=
EXTT11=
EXTT12=
EXTT13=
EXTT14=
EXTT15=
EXTT16=
EXTT17=
EXTT18=
EXTT19=
EXTT20=
EXTT21=
EXTT22=
EXTT23=
PLAYORDER=
